<svg width="147" height="137" viewBox="0 0 147 137" fill="none" xmlns="http://www.w3.org/2000/svg">
<path fill-rule="evenodd" clip-rule="evenodd" d="M18.618 84.0373C15.8557 83.9986 13.0325 83.9986 10.226 83.9489C8.34207 83.9489 6.4913 83.9599 4.64052 83.9655C3.74552 83.9655 2.8892 84.5235 2.3312 85.5953C1.70139 86.7334 1.04947 88.0261 0.579875 89.3852C0.375462 90.0371 0.242869 90.8106 0.287067 91.5067C0.303641 93.3962 0.347838 95.5784 0.375462 97.6889C0.403085 99.8049 0.447283 101.855 0.49148 103.468C0.49148 103.783 0.756666 104.164 0.933456 104.319C1.60747 104.854 12.7397 109.164 13.0049 111.191C13.1817 112.352 12.4635 113.528 11.5188 113.445C10.784 113.396 10.11 113.175 9.45806 112.876C8.67908 112.501 8.07688 111.882 7.56309 111.048C7.44707 110.843 7.22608 110.738 7.00509 110.805C5.07698 111.396 3.19858 111.893 1.27046 112.456C0.845061 112.595 0.535678 113.136 0.535678 113.777C0.535678 115.876 0.49148 117.998 0.49148 120.097C0.463857 122.407 0.176573 124.821 0.0218813 127.208C-0.0554645 128.395 0.0384553 128.622 0.861635 128.219C3.70133 126.859 6.51892 125.478 9.31442 124.241C10.7232 123.583 12.1375 122.981 13.5463 122.373C14.6181 121.965 15.6512 120.893 16.3253 119.545C17.1042 118.036 17.8666 116.611 18.5904 115.164C19.06 114.224 19.2644 113.23 19.2202 112.363C19.1594 110.048 19.1042 106.849 18.9992 104.749C18.9992 104.49 18.7616 104.169 18.5738 104.059C17.5904 103.429 16.6015 102.783 15.5021 102.092C14.3419 101.407 6.67914 97.595 6.50235 96.2027C6.34213 94.91 7.06034 93.8105 7.99954 94.1199C8.71775 94.3243 9.40834 94.7 10.0602 95.1309C10.8116 95.6558 11.458 96.3574 11.9276 97.2414C12.0602 97.5011 12.2646 97.5784 12.5298 97.5397C14.4137 97.258 16.3253 97.0812 18.1871 96.9265C18.629 96.8657 18.9661 96.4072 18.9495 95.8934C18.9053 94.1862 18.9495 92.468 18.9937 90.7554C18.9937 88.8935 19.2865 87.0206 19.4191 85.1588C19.5075 84.2307 19.4191 84.076 18.6125 84.0262L18.618 84.0373ZM39.5953 84.1146C37.5511 84.076 35.4628 84.076 33.3745 84.0428C32.4905 84.0428 32.4021 84.1865 32.5347 85.1422C32.7391 86.7776 32.9491 88.4073 33.0761 90.0427C33.1811 91.6227 33.3634 93.2139 33.4297 94.805C33.496 96.3906 33.4905 97.9872 33.2695 99.606C33.0761 100.904 32.7391 102.23 32.4297 103.556C32.2971 104.081 31.9159 104.512 31.3248 104.562C30.7668 104.611 30.369 104.396 30.148 103.821C30.0596 103.506 29.8387 103.225 29.8387 102.899C29.6011 101.02 29.2917 99.0977 29.2807 97.1806C29.2641 95.0923 29.4077 93.0205 29.6508 90.9598C29.8939 88.9046 30.2364 86.8659 30.6508 84.8384C30.7392 84.2859 30.7999 83.9157 29.6232 84.1478C27.7393 84.54 25.8277 84.5014 24.0046 84.1699C23.0212 83.9765 22.5958 84.0262 22.64 84.9212C22.7007 86.4682 22.756 88.0206 22.8168 89.5786C22.8775 91.1255 22.9328 92.678 23.0212 94.2083C23.2145 97.5397 23.2477 100.877 23.1372 104.225C23.0267 107.584 22.7228 110.987 22.3306 114.429C22.1538 115.683 21.8776 116.932 21.6566 118.208C21.5516 119.014 21.6732 119.125 22.3637 118.937C22.5405 118.915 22.7007 118.86 22.8775 118.799C25.3471 117.904 27.8166 117.108 30.3469 116.401C33.4629 115.595 36.5954 114.865 39.7113 114.235C40.0925 114.158 40.2693 113.876 40.1256 113.462V113.418C40.0814 113.224 40.0372 113.037 40.0096 112.832C39.6837 111.346 39.4627 109.816 39.3466 108.258C39.2306 106.7 39.1864 105.125 39.1699 103.551C39.098 100.451 39.1643 97.3298 39.3743 94.2304C39.5842 91.1366 39.9765 88.0593 40.3742 85.0041C40.4184 84.5235 40.1091 84.0925 39.5953 84.0981V84.1146ZM62.7493 99.8988C62.7327 99.2192 62.5448 98.7386 61.7659 98.5452C61.4399 98.4734 61.136 98.3242 60.8377 98.2027C60.3847 98.0259 59.9096 97.8381 59.4565 97.6557C59.1472 97.5453 59.0864 97.1419 59.3516 96.9762C60.335 96.3132 61.2023 95.7331 62.1029 95.1254C62.2631 95.0039 62.4841 94.7166 62.473 94.5122C62.473 92.8824 62.473 91.2415 62.4896 89.6062C62.5062 87.9654 62.5062 86.319 62.5504 84.6892C62.5504 84.1257 62.3736 83.8826 61.7714 83.9268C61.6388 83.9268 61.5338 83.8881 61.4012 83.8881C58.4179 83.9268 55.4346 83.9268 52.4899 83.971C49.6668 83.971 46.8602 83.982 44.0371 84.0207C43.2747 84.0649 43.1863 84.1975 43.2747 84.9599C43.4791 86.4847 43.8161 88.004 43.9045 89.5344C43.9763 90.9708 44.0371 92.4183 44.0813 93.8713C44.1255 95.3243 44.1697 96.7828 44.1531 98.2469C44.1697 100.269 43.8603 102.274 43.6228 104.341C43.4736 105.761 43.3134 107.186 43.1532 108.611C42.9929 110.037 42.7996 111.49 42.6228 112.954C42.551 113.561 42.7112 113.749 43.5344 113.539C45.8879 113.009 48.2414 112.711 50.606 112.633C50.7993 112.617 50.9872 112.595 51.1805 112.573C51.6225 112.49 51.9153 112.136 51.8546 111.727C51.6501 110.6 51.3131 108.517 51.2082 107.374C51.1032 105.943 51.2966 104.528 51.7827 103.147C52.3242 101.722 53.6943 101.291 54.7992 102.341C55.2136 102.733 55.429 103.368 55.4622 103.893C55.6224 104.91 55.6113 105.926 55.523 106.948C55.418 108.545 55.2412 110.147 55.0368 111.711C55.0092 112.042 55.2743 112.307 55.6114 112.28C57.0201 112.252 60.4786 112.136 62.3294 112.048C63.2686 112.02 63.2686 111.981 63.2575 111.053C63.1526 109.208 63.0752 107.352 62.9923 105.501C62.9095 103.645 62.8155 101.783 62.7548 99.9154L62.7493 99.8988ZM56.3959 92.2912C56.2191 94.0812 53.6169 96.3077 51.7496 96.3685C50.6612 96.4569 50.1309 95.6945 50.5894 94.6061C51.0314 93.4735 51.8546 92.5951 52.8821 91.9542C53.4678 91.5288 54.1473 91.2305 54.8821 90.9708C55.8102 90.7112 56.545 91.3962 56.3959 92.2968V92.2912ZM80.699 83.9213C75.7765 83.9213 70.8208 83.8826 65.9094 83.8826H65.7768C65.4508 83.8826 65.1912 84.203 65.3238 84.4848C65.368 84.7279 65.4122 84.9268 65.5005 85.1257C65.9978 87.4737 66.3237 89.8383 66.5005 92.2028C66.6773 94.5729 66.7657 96.9541 66.7215 99.3408C66.6773 101.324 66.4839 103.302 66.2519 105.258C66.0143 107.219 65.7215 109.175 65.4122 111.131C65.2354 111.937 65.1912 111.981 66.0862 111.965C68.1911 111.937 71.2738 111.926 73.7158 111.954C74.3898 111.965 74.9643 111.374 74.8483 110.689C74.6881 109.346 74.3124 107.562 74.0417 105.788C73.771 104.026 73.5721 102.252 73.7047 100.926C73.7765 100.125 74.1909 99.7662 75.2903 99.5728C77.0251 99.3408 78.6659 99.7551 80.1852 100.65C80.3123 100.722 80.4504 100.821 80.5995 100.904C80.9531 101.076 81.373 100.838 81.3619 100.479C81.3233 98.6723 81.2514 96.8712 81.2128 95.0646C81.2073 94.7 80.8868 94.4514 80.5498 94.5729C79.5775 94.8381 78.5941 95.1862 77.6217 95.3354C76.4615 95.4845 75.2848 95.363 74.2406 94.7166C73.4616 94.2304 73.1688 93.5067 73.3125 92.7774C73.4893 92.015 74.1633 91.783 74.8539 91.6614C76.8704 91.2636 78.5886 91.9211 80.1631 92.9873C80.2957 93.026 80.3841 93.1089 80.4725 93.1586C80.8095 93.4072 81.268 93.1697 81.2791 92.7608C81.2956 91.4128 81.3398 90.0703 81.3675 88.7278C81.3951 87.3853 81.4282 86.0428 81.4724 84.6947C81.5166 84.1312 81.3398 83.9268 80.6935 83.9268L80.699 83.9213ZM100.737 83.8881C98.0631 83.8881 95.3726 83.8881 92.682 83.8881C92.3561 83.8881 92.0964 84.1754 92.1848 84.5069C93.0964 89.1753 93.3229 93.8326 93.334 98.4679C93.3395 103.098 92.9914 107.705 92.4942 112.291C92.4611 112.622 92.6986 112.937 92.9914 112.965C95.4886 113.235 98.0023 113.545 100.516 113.882C100.941 113.937 101.278 113.65 101.223 113.213C101.063 111.644 100.87 110.081 100.72 108.567C100.588 106.418 100.417 104.274 100.295 102.136C100.168 100.004 100.074 97.8657 100.002 95.7221C99.9746 94.1586 100.041 92.5896 100.179 91.0205C100.317 89.4515 100.577 87.8936 100.897 86.3466C101.013 85.7444 101.162 85.1422 101.295 84.54C101.339 84.1975 101.091 83.8936 100.737 83.8936V83.8881ZM123.068 83.7113H114.969C114.615 83.7113 114.366 84.087 114.411 84.4627C114.676 85.9654 114.902 87.4847 115.04 89.0095C115.179 90.5344 115.306 92.0758 115.366 93.6116C115.411 93.9431 114.952 93.9984 114.869 93.6669C114.311 92.0979 113.764 90.5454 113.223 89.004C112.687 87.4737 112.134 85.9544 111.593 84.4516C111.593 84.4516 111.372 83.7113 111.035 83.7113H104.008C103.654 83.7113 103.45 84.0649 103.494 84.413C104.405 89.3466 104.649 94.2857 104.671 99.2027C104.693 104.114 104.345 108.965 103.875 113.793C103.831 114.092 104.096 114.429 104.433 114.49C106.947 114.921 109.461 115.412 111.991 115.943C112.433 116.037 112.742 115.755 112.681 115.285C112.521 113.595 112.284 111.904 112.184 110.247C112.024 107.937 111.891 105.584 111.742 103.241C111.698 102.821 112.195 102.849 112.3 103.225C112.521 104.059 113.212 105.998 113.858 107.981C114.505 109.976 115.179 112.031 115.444 113.014C115.681 113.954 115.737 114.854 115.681 115.733C115.654 115.86 115.654 115.998 115.665 116.147C115.621 116.462 115.875 116.832 116.179 116.915C118.444 117.512 120.736 118.141 123.013 118.843C123.455 118.976 123.764 118.683 123.747 118.175C123.526 116.307 123.294 114.456 123.189 112.65C123.013 110.125 122.847 107.606 122.692 105.098C122.537 102.595 122.427 100.092 122.339 97.595C122.278 95.7497 122.322 93.921 122.471 92.1034C122.62 90.2858 122.88 88.4626 123.223 86.6394C123.355 85.9433 123.444 85.2362 123.576 84.5345C123.648 84.1312 123.399 83.7224 123.079 83.7224L123.068 83.7113ZM145.327 83.7113H137.228C136.874 83.7113 136.625 84.1809 136.67 84.645C136.951 86.5068 137.161 88.3963 137.316 90.2858C137.471 92.1863 137.609 94.0978 137.67 96.0094C137.697 96.4237 137.244 96.4679 137.156 96.048C136.614 94.0812 136.056 92.1365 135.509 90.2195C134.968 88.3245 134.405 86.4571 133.847 84.6063C133.847 84.6063 133.626 83.7058 133.305 83.7058H126.261C125.908 83.7058 125.703 84.1202 125.747 84.5345C126.675 90.3907 126.908 96.258 126.985 102.076C127.057 107.888 126.78 113.572 126.355 119.18C126.311 119.523 126.576 119.97 126.913 120.092C129.438 120.992 131.979 121.97 134.515 123.025C134.963 123.213 135.266 122.926 135.206 122.34C135.012 120.252 134.764 118.152 134.664 116.119C134.471 113.285 134.294 110.401 134.134 107.534C134.073 107.02 134.587 107.109 134.692 107.578C134.94 108.628 135.625 111.075 136.294 113.589C136.974 116.136 137.675 118.76 137.957 120.02C138.206 121.213 138.283 122.346 138.25 123.418C138.206 123.567 138.206 123.743 138.222 123.926C138.161 124.313 138.438 124.815 138.736 124.976C141.023 126.163 143.321 127.434 145.631 128.826C146.067 129.091 146.382 128.765 146.365 128.125C146.128 125.688 145.879 123.268 145.747 120.926C145.542 117.666 145.327 114.412 145.145 111.18C144.962 107.954 144.808 104.733 144.692 101.529C144.603 99.1529 144.647 96.8105 144.78 94.479C144.912 92.1476 145.161 89.8106 145.498 87.4737C145.631 86.5731 145.719 85.6616 145.852 84.75C145.94 84.2307 145.675 83.7058 145.338 83.7058L145.327 83.7113Z" fill="currentColor"/>
<path fill-rule="evenodd" clip-rule="evenodd" d="M109.635 66.0441C111.226 50.2655 106.166 45.9617 95.0334 34.5366C89.6357 28.9953 86.4258 27.9345 78.6249 27.9235C58.8685 27.8848 60.0397 25.6639 43.7805 41.8016C38.4491 47.0943 37.2724 50.3704 36.742 57.3592C36.0293 66.8286 35.974 72.6793 38.2889 78.1211C56.642 77.3974 69.8351 39.5254 86.3374 50.6632C89.9727 53.1162 92.166 58.3758 89.039 57.2708C84.9065 55.8123 80.3984 50.8345 80.3984 60.1823C80.3984 65.0607 83.5309 69.044 87.8899 72.0494L87.9286 72.0771L88.0612 72.171L88.1827 72.2539L88.3153 72.3423H88.3263L88.5473 72.4914L88.691 72.5853L88.7959 72.6516L88.9341 72.74L89.0611 72.8174L89.2048 72.9058L89.3042 72.9665L89.4534 73.0549L89.6854 73.1931L89.702 73.2041L89.8401 73.287L89.9617 73.3588L90.1164 73.4472L90.2434 73.519L90.376 73.5964H90.3871L90.6246 73.7345L90.7904 73.8229L90.8898 73.8781L91.05 73.9665L91.166 74.0273L91.3263 74.1102L91.4091 74.1544C91.5141 74.2096 91.6135 74.2593 91.7185 74.3091L91.8511 74.3754L91.9948 74.4472L92.1163 74.5079L92.2931 74.5963L92.3594 74.6295L92.5528 74.7234L92.8014 74.8394H92.8069L92.9892 74.9278L93.0776 74.9665L93.177 75.0107C96.6134 76.5631 100.293 77.6349 103.591 78.1985H108.574C109.027 76.5079 109.265 74.5632 109.37 72.1544C109.469 69.9556 109.569 67.939 109.641 66.0606L109.635 66.0441Z" fill="currentColor"/>
<path fill-rule="evenodd" clip-rule="evenodd" d="M117.74 78.1814C116.624 72.3362 115.912 68.922 115.757 65.6458H115.74V65.4303V65.2149H115.757C115.906 61.9221 116.63 58.4858 117.757 52.5854L138.176 52.9003C137.933 57.53 124.878 59.9609 123.21 64.1817C123.165 64.5408 123.143 64.8834 123.138 65.2149C123.138 65.2867 123.138 65.353 123.138 65.4248C123.138 65.5022 123.138 65.574 123.138 65.6403C123.138 65.9717 123.165 66.3143 123.21 66.6734C124.878 70.8943 137.933 73.3251 138.176 77.9549L123.723 78.1814H117.74ZM95.6194 24.8291C99.0005 29.7959 100.918 32.7405 103.138 35.1714L103.127 35.1825L103.282 35.3261L103.426 35.4808L103.437 35.4698C105.873 37.6907 108.812 39.6078 113.779 42.9889L127.994 28.3263C124.547 25.2214 113.597 32.7405 109.431 30.934C109.144 30.713 108.884 30.4865 108.652 30.2544C108.602 30.2047 108.547 30.155 108.497 30.1053C108.448 30.05 108.398 30.0003 108.354 29.9506C108.122 29.7185 107.895 29.4589 107.674 29.1716C105.868 25.0059 113.381 14.0559 110.282 10.6085L95.6194 24.8236V24.8291ZM50.7533 24.8291C47.3722 29.7959 45.4552 32.7405 43.2342 35.1714L43.2453 35.1825L43.0906 35.3261L42.9469 35.4808L42.9359 35.4698C40.4995 37.6907 37.5604 39.6078 32.5937 42.9889L18.3786 28.3263C21.826 25.2214 32.776 32.7405 36.9416 30.934C37.2289 30.713 37.4885 30.4865 37.7206 30.2544C37.7703 30.2047 37.8256 30.155 37.8753 30.1053C37.925 30.05 37.9747 30.0003 38.0189 29.9506C38.251 29.7185 38.4775 29.4589 38.6985 29.1716C40.505 25.0059 32.9914 14.0559 36.0908 10.6085L50.7533 24.8236V24.8291ZM60.3442 20.8569C66.2501 21.9839 69.6809 22.7021 72.9737 22.8568V22.8734H73.1891H73.4046V22.8568C76.6973 22.7077 80.1337 21.9839 86.034 20.8569L85.7191 0.4375C81.0894 0.680588 78.6586 13.7355 74.4377 15.404C74.0786 15.4482 73.7361 15.4703 73.4046 15.4758C73.3328 15.4758 73.2665 15.4758 73.1946 15.4758C73.1228 15.4758 73.051 15.4758 72.9847 15.4758C72.6532 15.4758 72.3107 15.4537 71.9516 15.4095C67.7307 13.741 65.2999 0.686112 60.6702 0.443025L60.3552 20.8624L60.3442 20.8569ZM28.638 78.1814C29.754 72.3362 30.4667 68.922 30.6214 65.6458H30.6379V65.4303V65.2149H30.6214C30.4722 61.9221 29.7485 58.4858 28.6214 52.5854L8.20215 52.9003C8.44523 57.53 21.5001 59.9609 23.1685 64.1817C23.2127 64.5408 23.2348 64.8834 23.2404 65.2149C23.2404 65.2867 23.2404 65.353 23.2404 65.4248C23.2404 65.5022 23.2404 65.574 23.2404 65.6403C23.2404 65.9717 23.2127 66.3143 23.1685 66.6734C21.5001 70.8943 8.44523 73.3251 8.20215 77.9549L22.6382 78.1814H28.638Z" fill="currentColor"/>
<path fill-rule="evenodd" clip-rule="evenodd" d="M34.0885 119.479C35.5415 121.402 38.7293 121.921 43.0938 123.545C61.3254 130.346 65.8833 120.197 74.1594 121.23C78.7228 121.799 85.2143 126.739 94.8881 125.877C96.866 125.7 111.484 121.678 112.319 118.96C99.7057 118.866 37.8509 118.137 34.083 119.479H34.0885Z" fill="currentColor"/>
<path fill-rule="evenodd" clip-rule="evenodd" d="M53.126 129.777C54.3525 131.998 57.2308 131.987 62.1699 133.882C65.6339 135.213 68.8659 136.512 73.5619 136.434C77.606 136.368 91.8709 132.445 93.2355 129.777C91.1968 128.86 55.6011 128.793 53.1315 129.777H53.126Z" fill="currentColor"/>
</svg>
